<?xml version="1.0" encoding="UTF-8" standalone="no"?>
<svg
   xmlns:dc="http://purl.org/dc/elements/1.1/"
   xmlns:cc="http://creativecommons.org/ns#"
   xmlns:rdf="http://www.w3.org/1999/02/22-rdf-syntax-ns#"
   xmlns:svg="http://www.w3.org/2000/svg"
   xmlns="http://www.w3.org/2000/svg"
   xmlns:sodipodi="http://sodipodi.sourceforge.net/DTD/sodipodi-0.dtd"
   xmlns:inkscape="http://www.inkscape.org/namespaces/inkscape"
   id="Capa_1"
   enable-background="new 0 0 493.65 493.65"
   height="500"
   viewBox="0 0 482.08008 482.08008"
   width="500"
   version="1.1"
   inkscape:version="0.91 r13725"
   sodipodi:docname="corn.svg"
   inkscape:export-filename="/home/milos/moja-njiva/assets/icons/corn.svg.png"
   inkscape:export-xdpi="11"
   inkscape:export-ydpi="11">
  <metadata
     id="metadata4331">
    <rdf:RDF>
      <cc:Work
         rdf:about="">
        <dc:format>image/svg+xml</dc:format>
        <dc:type
           rdf:resource="http://purl.org/dc/dcmitype/StillImage" />
        <dc:title />
      </cc:Work>
    </rdf:RDF>
  </metadata>
  <defs
     id="defs4329" />
  <sodipodi:namedview
     pagecolor="#ffffff"
     bordercolor="#666666"
     borderopacity="1"
     objecttolerance="10"
     gridtolerance="10"
     guidetolerance="10"
     inkscape:pageopacity="0"
     inkscape:pageshadow="2"
     inkscape:window-width="1600"
     inkscape:window-height="837"
     id="namedview4327"
     showgrid="false"
     fit-margin-top="0"
     fit-margin-left="0"
     fit-margin-right="0"
     fit-margin-bottom="0"
     inkscape:zoom="0.4609375"
     inkscape:cx="163.79659"
     inkscape:cy="325.02549"
     inkscape:window-x="0"
     inkscape:window-y="30"
     inkscape:window-maximized="1"
     inkscape:current-layer="Capa_1" />
  <g
     id="g4875"
     transform="matrix(0.65474079,0,0,0.65474079,79.433716,79.433614)"
     inkscape:export-xdpi="11"
     inkscape:export-ydpi="11">
    <path
       style="fill:#ffe358;fill-opacity:1"
       id="path4305"
       d="m 142.36,173.061 c 3.653,-91.865 43.546,-139.493 72.952,-162.295 18.503,-14.347 44.522,-14.347 63.025,0 29.406,22.802 69.3,70.43 72.953,162.295 4.254,106.977 0,157.079 0,157.079 l -208.93,0 c 0,0 -4.253,-50.102 0,-157.079 z"
       inkscape:connector-curvature="0" />
    <path
       id="path4307"
       d="m 264.325,3.048 c -4.95,1.79 -9.69,4.36 -14.01,7.72 -29.41,22.8 -69.3,70.43 -72.95,162.29 -4.26,106.98 0,157.08 0,157.08 l -35,0 c 0,0 -4.26,-50.1 0,-157.08 3.65,-91.86 43.54,-139.49 72.95,-162.29 14.18,-11 32.77,-13.57 49.01,-7.72 z"
       inkscape:connector-curvature="0"
       style="fill:#fdc202" />
    <path
       style="fill:#8bc34a;fill-opacity:1"
       id="path4309"
       d="m 246.825,493.65 c -20.066,0 -36.333,-16.267 -36.333,-36.333 l 0,-87.333 72.667,0 0,87.333 c 0,20.066 -16.267,36.333 -36.334,36.333 z"
       inkscape:connector-curvature="0" />
    <g
       id="g4311"
       style="fill:#f0a70a">
      <path
         id="path4313"
         d="m 297.675,78.478 0,0.12 c 0,9.15 -7.49,16.64 -16.63,16.64 l -15.3,0 c -9.14,0 -16.63,-7.49 -16.63,-16.64 0,-8.49 6.44,-15.53 14.67,-16.51 0.64,-0.08 1.3,-0.12 1.96,-0.12 l 15.3,0 c 9.1,0 16.56,7.41 16.63,16.51 z"
         inkscape:connector-curvature="0" />
      <path
         id="path4315"
         d="m 297.675,142.478 0,0.12 c 0,9.15 -7.49,16.64 -16.63,16.64 l -15.3,0 c -9.14,0 -16.63,-7.49 -16.63,-16.64 0,-8.49 6.44,-15.53 14.67,-16.51 0.64,-0.08 1.3,-0.12 1.96,-0.12 l 15.3,0 c 9.1,0 16.56,7.41 16.63,16.51 z"
         inkscape:connector-curvature="0" />
      <path
         id="path4317"
         d="m 297.675,206.478 0,0.12 c 0,9.15 -7.49,16.64 -16.63,16.64 l -15.3,0 c -9.14,0 -16.63,-7.49 -16.63,-16.64 0,-8.49 6.44,-15.53 14.67,-16.51 0.64,-0.08 1.3,-0.12 1.96,-0.12 l 15.3,0 c 9.1,0 16.56,7.41 16.63,16.51 z"
         inkscape:connector-curvature="0" />
      <path
         id="path4319"
         d="m 229.275,110.478 0,0.12 c 0,9.15 -7.49,16.64 -16.63,16.64 l -15.3,0 c -9.14,0 -16.63,-7.49 -16.63,-16.64 0,-8.49 6.44,-15.53 14.67,-16.51 0.64,-0.08 1.3,-0.12 1.96,-0.12 l 15.3,0 c 9.1,0 16.56,7.41 16.63,16.51 z"
         inkscape:connector-curvature="0" />
      <path
         id="path4321"
         d="m 229.275,174.478 0,0.12 c 0,9.15 -7.49,16.64 -16.63,16.64 l -15.3,0 c -9.14,0 -16.63,-7.49 -16.63,-16.64 0,-8.49 6.44,-15.53 14.67,-16.51 0.64,-0.08 1.3,-0.12 1.96,-0.12 l 15.3,0 c 9.1,0 16.56,7.41 16.63,16.51 z"
         inkscape:connector-curvature="0" />
    </g>
    <path
       style="fill:#8bc34a;fill-opacity:1"
       id="path4323"
       d="m 425.596,257.533 c -6.25,-7.609 -14.929,-13.604 -25.124,-18.304 -67.051,-30.911 -142.866,13.747 -152.599,84.18 -0.073,0.526 -0.518,0.919 -1.048,0.919 -0.53,0 -0.976,-0.393 -1.048,-0.919 -9.732,-70.433 -85.548,-115.091 -152.599,-84.18 -10.195,4.7 -18.874,10.695 -25.124,18.304 -7.616,9.273 19.792,6.831 20.54,6.831 12.768,0 27.165,3.998 38.542,18.267 14.478,18.159 12.338,35.682 12.625,60.164 0,59.13 47.934,107.064 107.064,107.064 59.13,0 107.064,-47.934 107.064,-107.064 0.286,-24.481 -1.853,-42.005 12.625,-60.164 11.377,-14.27 25.774,-18.267 38.542,-18.267 0.748,0 28.156,2.442 20.54,-6.831 z"
       inkscape:connector-curvature="0" />
    <path
       style="fill:#8bc34a;fill-opacity:1"
       id="path4325"
       d="m 167.255,329.498 c -0.31,-26.5 2,-45.47 -13.67,-65.13 -12.32,-15.45 -27.9,-19.77 -41.73,-19.77 -0.66,0 -20.56,1.76 -23.35,-3.06 -8.18,4.31 -15.18,9.58 -20.45,16 -7.62,9.27 19.79,6.83 20.54,6.83 12.77,0 27.16,3.99 38.54,18.26 14.48,18.16 12.34,35.69 12.63,60.17 0,59.13 47.93,107.06 107.06,107.06 10.79,0 21.21,-1.6 31.04,-4.57 -61.55,-2.76 -110.61,-53.54 -110.61,-115.79 z"
       inkscape:connector-curvature="0" />
  </g>
</svg>
