<?xml version="1.0" encoding="UTF-8" standalone="no"?>
<!-- Generator: Adobe Illustrator 19.0.0, SVG Export Plug-In . SVG Version: 6.00 Build 0)  -->

<svg
   xmlns:dc="http://purl.org/dc/elements/1.1/"
   xmlns:cc="http://creativecommons.org/ns#"
   xmlns:rdf="http://www.w3.org/1999/02/22-rdf-syntax-ns#"
   xmlns:svg="http://www.w3.org/2000/svg"
   xmlns="http://www.w3.org/2000/svg"
   xmlns:sodipodi="http://sodipodi.sourceforge.net/DTD/sodipodi-0.dtd"
   xmlns:inkscape="http://www.inkscape.org/namespaces/inkscape"
   version="1.1"
   id="Layer_1"
   x="0px"
   y="0px"
   viewBox="0 0 500 500"
   xml:space="preserve"
   width="500"
   height="500"
   inkscape:version="0.91 r13725"
   sodipodi:docname="soya.svg"
   inkscape:export-filename="/home/milos/moja-njiva/assets/icons/soya.svg.png"
   inkscape:export-xdpi="11"
   inkscape:export-ydpi="11"><metadata
     id="metadata5028"><rdf:RDF><cc:Work
         rdf:about=""><dc:format>image/svg+xml</dc:format><dc:type
           rdf:resource="http://purl.org/dc/dcmitype/StillImage" /><dc:title /></cc:Work></rdf:RDF></metadata><defs
     id="defs5026" /><sodipodi:namedview
     pagecolor="#ffffff"
     bordercolor="#666666"
     borderopacity="1"
     objecttolerance="10"
     gridtolerance="10"
     guidetolerance="10"
     inkscape:pageopacity="0"
     inkscape:pageshadow="2"
     inkscape:window-width="1600"
     inkscape:window-height="837"
     id="namedview5024"
     showgrid="false"
     fit-margin-top="0"
     fit-margin-left="0"
     fit-margin-right="0"
     fit-margin-bottom="0"
     inkscape:zoom="0.921875"
     inkscape:cx="-23.383286"
     inkscape:cy="204.4725"
     inkscape:window-x="0"
     inkscape:window-y="30"
     inkscape:window-maximized="1"
     inkscape:current-layer="Layer_1" /><g
     id="g5588"
     transform="translate(709.88121,-116.6495)"><path
       style="fill:#0ac4ba;fill-opacity:1"
       d="m -534.32136,483.08978 -68.19443,26.74073 -0.47485,0 0.94857,-10.20333 c 0.47485,-4.50852 15.16097,-112.28467 88.48363,-185.60733 73.32267,-73.32267 182.07424,-89.12683 186.58277,-89.60224 l 10.20388,-0.94913 0,0.47485 -23.20819,56.97374 -101.32294,105.35829 -93.01844,96.81442 z"
       id="path4992"
       inkscape:connector-curvature="0" /><path
       style="fill:#009184"
       d="m -534.32136,483.08978 -68.19443,26.74073 -0.47485,0 0.94857,-10.20333 c 0.47485,-4.50852 15.16097,-112.28467 88.48363,-185.60733 l 72.25552,72.25551 -93.01844,96.81442 z"
       id="path4994"
       inkscape:connector-curvature="0" /><g
       style="fill:#8bc34a;fill-opacity:1"
       transform="matrix(0.55930084,0,0,0.55930084,-603.06223,223.46848)"
       id="g4996"><g
         style="fill:#8bc34a;fill-opacity:1"
         id="g4998"><path
           style="fill:#8bc34a;fill-opacity:1"
           d="m 393.798,119.899 c -0.212,-0.212 -0.212,-0.212 -0.425,-0.425 -29.274,-29.274 -76.792,-29.274 -106.066,0 -29.274,29.274 -29.274,76.792 0,106.066 0.212,0.212 0.212,0.212 0.425,0.425 29.274,28.85 76.579,28.637 105.641,-0.425 29.062,-29.062 29.275,-76.367 0.425,-105.641 z"
           id="path5000"
           inkscape:connector-curvature="0" /></g></g><g
       style="fill:#ffe358;fill-opacity:1"
       transform="matrix(0.55930084,0,0,0.55930084,-603.06223,223.46848)"
       id="g5002"><path
         style="fill:#ffe358;fill-opacity:1"
         d="m 308.945,204.752 c -0.212,-0.212 -0.212,-0.212 -0.425,-0.425 -29.274,-29.274 -76.792,-29.274 -106.066,0 -29.274,29.274 -29.274,76.792 0,106.066 0.212,0.212 0.212,0.212 0.425,0.425 29.274,28.85 76.579,28.637 105.641,-0.425 29.063,-29.062 29.275,-76.367 0.425,-105.641 z"
         id="path5004"
         inkscape:connector-curvature="0" /></g><path
       style="fill:#8bc34a;fill-opacity:1"
       d="m -430.50618,397.07155 c -16.2544,16.2544 -42.71212,16.37297 -59.0851,0.2377 -0.11857,-0.11857 -0.11857,-0.11857 -0.2377,-0.2377 -16.37297,-16.37298 -16.37297,-42.94983 0,-59.32281 l 59.3228,59.32281 z"
       id="path5006"
       inkscape:connector-curvature="0" /><g
       style="fill:#8bc34a;fill-opacity:1"
       transform="matrix(0.55930084,0,0,0.55930084,-603.06223,223.46848)"
       id="g5008"><path
         style="fill:#8bc34a;fill-opacity:1"
         d="m 480.15,375.956 c -29.274,-29.274 -76.792,-29.274 -106.066,0 -29.274,29.274 -29.274,76.792 0,106.066 29.274,29.274 76.792,29.274 106.066,0 29.274,-29.274 29.274,-76.792 0,-106.066 z"
         id="path5010"
         inkscape:connector-curvature="0" /></g><path
       style="fill:#ffe358;fill-opacity:1"
       d="m -334.51393,493.06379 c -16.37297,16.37297 -42.94983,16.37297 -59.3228,0 -16.37298,-16.37297 -16.37298,-42.94983 0,-59.3228 l 59.3228,59.3228 z"
       id="path5012"
       inkscape:connector-curvature="0" /><g
       style="fill:#ffe358;fill-opacity:1"
       transform="matrix(0.55930084,0,0,0.55930084,-603.06223,223.46848)"
       id="g5014"><g
         style="fill:#ffe358;fill-opacity:1"
         id="g5016"><path
           style="fill:#ffe358;fill-opacity:1"
           d="m 224.092,289.605 c -0.212,-0.212 -0.212,-0.212 -0.425,-0.425 -29.274,-29.274 -76.792,-29.274 -106.066,0 -29.274,29.274 -29.274,76.792 0,106.066 0.212,0.212 0.212,0.212 0.425,0.425 29.274,28.85 76.579,28.637 105.641,-0.425 29.062,-29.062 29.275,-76.367 0.425,-105.641 z"
           id="path5018"
           inkscape:connector-curvature="0" /></g></g><path
       style="fill:#61d7a8;fill-opacity:1"
       d="m -406.77728,420.801 c -73.32266,73.32266 -181.50151,87.60609 -186.01003,88.08094 l -9.72848,0.94857 10.79562,-7.4745 c 51.01831,-35.3562 101.53548,-77.63934 145.19674,-121.30116 43.66126,-43.66182 86.92038,-95.29648 122.27602,-146.31478 l 7.47562,-10.79618 -0.94913,9.72903 c -0.47541,4.50797 -15.7337,113.80486 -89.05636,187.12808 z"
       id="path5020"
       inkscape:connector-curvature="0" /><path
       style="fill:#0ac4ba;fill-opacity:1"
       d="m -446.52343,381.05485 39.74615,39.74615 c -73.32266,73.32266 -181.50151,87.60609 -186.01003,88.08094 l -9.72848,0.94857 10.79562,-7.4745 c 51.01831,-35.3562 101.53548,-77.6399 145.19674,-121.30116 z"
       id="path5022"
       inkscape:connector-curvature="0" /></g></svg>