<?xml version="1.0" encoding="UTF-8" standalone="no"?>
<svg
   xmlns:dc="http://purl.org/dc/elements/1.1/"
   xmlns:cc="http://creativecommons.org/ns#"
   xmlns:rdf="http://www.w3.org/1999/02/22-rdf-syntax-ns#"
   xmlns:svg="http://www.w3.org/2000/svg"
   xmlns="http://www.w3.org/2000/svg"
   xmlns:sodipodi="http://sodipodi.sourceforge.net/DTD/sodipodi-0.dtd"
   xmlns:inkscape="http://www.inkscape.org/namespaces/inkscape"
   height="400pt"
   viewBox="-87 0 400 400"
   width="400pt"
   id="svg5688"
   version="1.1"
   inkscape:version="0.91 r13725"
   sodipodi:docname="sunflower.svg"
   inkscape:export-filename="/home/milos/moja-njiva/assets/icons/sunflower.svg.png"
   inkscape:export-xdpi="11"
   inkscape:export-ydpi="11">
  <metadata
     id="metadata5708">
    <rdf:RDF>
      <cc:Work
         rdf:about="">
        <dc:format>image/svg+xml</dc:format>
        <dc:type
           rdf:resource="http://purl.org/dc/dcmitype/StillImage" />
        <dc:title />
      </cc:Work>
    </rdf:RDF>
  </metadata>
  <defs
     id="defs5706" />
  <sodipodi:namedview
     pagecolor="#ffffff"
     bordercolor="#666666"
     borderopacity="1"
     objecttolerance="10"
     gridtolerance="10"
     guidetolerance="10"
     inkscape:pageopacity="0"
     inkscape:pageshadow="2"
     inkscape:window-width="1600"
     inkscape:window-height="837"
     id="namedview5704"
     showgrid="false"
     fit-margin-top="0"
     fit-margin-left="0"
     fit-margin-right="0"
     fit-margin-bottom="0"
     inkscape:zoom="0.26074563"
     inkscape:cx="-348.49775"
     inkscape:cy="-122.80333"
     inkscape:window-x="0"
     inkscape:window-y="30"
     inkscape:window-maximized="1"
     inkscape:current-layer="svg5688" />
  <g
     id="g6252"
     transform="matrix(0.5703593,0,0,0.5703593,16.504565,53.98802)">
    <path
       style="fill:#8bc34a;fill-opacity:1"
       id="path5690"
       d="m 169.18359,512 c -8.43359,0 -15.27343,-6.83984 -15.27343,-15.27344 l 0,-173.6289 c 0,-8.4336 6.83984,-15.27344 15.27343,-15.27344 8.4336,0 15.27344,6.83984 15.27344,15.27344 l 0,173.6289 c 0,8.4336 -6.83984,15.27344 -15.27344,15.27344 z m 0,0"
       inkscape:connector-curvature="0" />
    <path
       style="fill:#8bc34a;fill-opacity:1"
       id="path5692"
       d="m 273.14062,356.5 c -1.86328,-0.38281 -46.02734,-9.11328 -78.89062,13.82812 -11.02344,7.69532 -19.13672,17.8125 -25.06641,27.9336 C 163.25,388.14062 155.13672,378.02344 144.11328,370.32812 111.25391,347.38672 67.085938,356.11719 65.222656,356.5 c -7.953125,1.63672 -13.238281,9.20703 -12.027344,17.23437 0.28125,1.87891 7.304688,46.34766 40.171876,69.28907 18.433592,12.87109 40.425782,15.77343 56.511722,15.77343 8.61328,0 15.52734,-0.83203 19.30078,-1.41406 3.77343,0.58203 10.6914,1.41406 19.30468,1.41406 16.08594,0 38.07813,-2.90625 56.51172,-15.77343 32.86328,-22.94141 39.89063,-67.40625 40.17188,-69.28907 1.21094,-8.02734 -4.07422,-15.59765 -12.02735,-17.23437 z m 0,0"
       inkscape:connector-curvature="0" />
    <path
       style="fill:#8bc34a;fill-opacity:0"
       id="path5694"
       d="m 273.14062,356.5 c -1.86328,-0.38281 -46.02734,-9.11328 -78.89062,13.82812 -11.02344,7.69532 -19.13672,17.8125 -25.06641,27.92969 l 0,59.125 c 3.77344,0.58203 10.6875,1.41406 19.30078,1.41406 16.08594,0 38.07813,-2.90625 56.51172,-15.77343 32.86719,-22.94141 39.89063,-67.40625 40.17188,-69.28907 1.21094,-8.02734 -4.07422,-15.59765 -12.02735,-17.23437 z m 0,0"
       inkscape:connector-curvature="0" />
    <path
       style="fill:#ffe358;fill-opacity:1"
       id="path5696"
       d="m 169.18359,338.37109 c -4.17968,0 -8.17968,-1.71484 -11.0625,-4.74218 -0.68359,-0.71875 -13.35156,-14.16797 -23.66797,-34.82422 -19.26562,12.73047 -36.960932,18.04297 -37.910151,18.32422 -4.011719,1.18359 -8.332031,0.66797 -11.949219,-1.42578 -3.621094,-2.08985 -6.226562,-5.57422 -7.210938,-9.63672 -0.234374,-0.96094 -4.476562,-18.94532 -3.085937,-41.99219 -23.050781,1.39453 -41.03125,-2.85547 -41.992187,-3.08594 -4.066407,-0.98437 -7.546876,-3.58984 -9.636719,-7.21094 -2.09375,-3.62109 -2.609375,-7.9375 -1.425781,-11.94921 0.28125,-0.95313 5.59375,-18.64844 18.324218,-37.91016 C 18.910156,193.59766 5.457031,180.92969 4.742188,180.24609 1.710938,177.36328 0,173.36719 0,169.1875 0,165.00391 1.714844,161.00781 4.742188,158.125 5.460938,157.44141 18.910156,144.77344 39.566406,134.45313 26.835938,115.19141 21.523438,97.496094 21.242188,96.542969 20.0625,92.53125 20.578125,88.214844 22.667969,84.59375 24.753906,80.972656 28.238281,78.367188 32.304688,77.382812 33.269531,77.148438 51.253906,72.902344 74.296875,74.296875 72.90625,51.25 77.152344,33.265625 77.382812,32.300781 c 0.984376,-4.0625 3.589844,-7.546875 7.210938,-9.632812 3.621094,-2.09375 7.9375,-2.609375 11.949219,-1.425781 0.949219,0.28125 18.648441,5.59375 37.910151,18.324218 C 144.76953,18.910156 157.4375,5.457031 158.12109,4.742188 161.00391,1.714844 165.00391,0 169.18359,0 c 4.17969,0 8.17969,1.714844 11.0625,4.742188 0.6836,0.71875 13.35157,14.167968 23.66797,34.824218 19.26563,-12.730468 36.96094,-18.042968 37.91016,-18.324218 4.01562,-1.183594 8.33203,-0.664063 11.95312,1.425781 3.6211,2.089843 6.22657,5.574219 7.20703,9.636719 0.23438,0.964843 4.47657,18.945312 3.08594,41.996093 23.05078,-1.394531 41.03125,2.851563 41.99219,3.082031 4.06641,0.984376 7.54687,3.589844 9.64062,7.210938 2.08985,3.621094 2.60547,7.941406 1.42188,11.949219 -0.27734,0.953125 -5.59375,18.648441 -18.32422,37.914061 20.65625,10.31641 34.10547,22.98438 34.82422,23.66797 3.02734,2.88281 4.74219,6.88281 4.74219,11.0625 0,4.17969 -1.71485,8.17969 -4.74219,11.05859 -0.71484,0.6836 -14.16797,13.35157 -34.82422,23.67188 12.73047,19.26562 18.04688,36.96094 18.32422,37.91016 1.17969,4.01171 0.66406,8.33203 -1.42188,11.94921 -2.09375,3.6211 -5.57421,6.22657 -9.64062,7.21094 -0.96094,0.23438 -18.94531,4.47656 -41.99219,3.08594 1.39063,23.04687 -2.85156,41.03125 -3.08594,41.99219 -0.98046,4.0664 -3.58593,7.54687 -7.20703,9.64062 -3.62109,2.08985 -7.9414,2.60547 -11.95312,1.42188 -0.94922,-0.27735 -18.64453,-5.59375 -37.91016,-18.32422 -10.3164,20.65625 -22.98437,34.10937 -23.66797,34.82422 -2.88281,3.02734 -6.88281,4.74218 -11.0625,4.74218 z m 0,0"
       inkscape:connector-curvature="0" />
    <path
       id="path5698"
       d="m 180.24609,333.62891 c 0.6836,-0.71875 13.35157,-14.16797 23.66797,-34.82422 19.26563,12.73047 36.96094,18.04297 37.91016,18.32422 4.01172,1.18359 8.33203,0.66796 11.95312,-1.42579 3.6211,-2.08984 6.22657,-5.57421 7.20703,-9.63671 0.23438,-0.96094 4.47657,-18.94532 3.08594,-41.99219 23.04688,1.39062 41.03125,-2.85547 41.99219,-3.08594 4.06641,-0.98437 7.54687,-3.58984 9.64062,-7.21094 2.08985,-3.62109 2.60547,-7.9375 1.42188,-11.94922 -0.27734,-0.95312 -5.59375,-18.64843 -18.32422,-37.91015 20.65625,-10.32031 34.10938,-22.98828 34.82422,-23.67188 3.03125,-2.88281 4.74219,-6.8789 4.74219,-11.05859 0,-4.18359 -1.71485,-8.17969 -4.74219,-11.0625 -0.71875,-0.68359 -14.16797,-13.35156 -34.82422,-23.67188 12.73047,-19.26171 18.04688,-36.957026 18.32422,-37.910151 1.17969,-4.011719 0.66406,-8.328125 -1.42188,-11.949219 -2.08984,-3.621094 -5.57421,-6.226562 -9.64062,-7.210938 -0.96094,-0.234374 -18.94141,-4.476562 -41.99219,-3.085937 1.39063,-23.046875 -2.85156,-41.03125 -3.08594,-41.992187 -0.98046,-4.066407 -3.58593,-7.546876 -7.20703,-9.636719 -3.62109,-2.089844 -7.9375,-2.609375 -11.95312,-1.425781 -0.94922,0.28125 -18.64453,5.59375 -37.91016,18.324218 C 193.59766,18.910156 180.92969,5.460938 180.24609,4.742188 177.36328,1.714844 173.36328,0 169.18359,0 l 0,338.37109 c 4.17969,0 8.17969,-1.71484 11.0625,-4.74218 z m 0,0"
       inkscape:connector-curvature="0"
       style="fill:#ffbe26" />
    <path
       id="path5700"
       d="m 169.18359,245.18359 c -41.90625,0 -75.999996,-34.09375 -75.999996,-76 0,-41.90625 34.093746,-75.999996 75.999996,-75.999996 41.90625,0 76,34.093746 76,75.999996 0,41.90625 -34.09375,76 -76,76 z m 0,0"
       inkscape:connector-curvature="0"
       style="fill:#b04617" />
    <path
       id="path5702"
       d="m 245.18359,169.1875 c 0,-41.91016 -34.09375,-76.003906 -76,-76.003906 l 0,151.999996 c 41.90625,0 76,-34.08984 76,-75.99609 z m 0,0"
       inkscape:connector-curvature="0"
       style="fill:#83360b" />
  </g>
</svg>
