<?xml version="1.0" encoding="UTF-8" standalone="no"?>
<svg
   xmlns:dc="http://purl.org/dc/elements/1.1/"
   xmlns:cc="http://creativecommons.org/ns#"
   xmlns:rdf="http://www.w3.org/1999/02/22-rdf-syntax-ns#"
   xmlns:svg="http://www.w3.org/2000/svg"
   xmlns="http://www.w3.org/2000/svg"
   xmlns:sodipodi="http://sodipodi.sourceforge.net/DTD/sodipodi-0.dtd"
   xmlns:inkscape="http://www.inkscape.org/namespaces/inkscape"
   height="500"
   viewBox="0 0 400 400"
   width="500"
   id="svg2"
   version="1.1"
   inkscape:version="0.91 r13725"
   sodipodi:docname="wheat.svg"
   inkscape:export-filename="/home/milos/moja-njiva/assets/icons/wheat.svg.png"
   inkscape:export-xdpi="11"
   inkscape:export-ydpi="11">
  <metadata
     id="metadata24">
    <rdf:RDF>
      <cc:Work
         rdf:about="">
        <dc:format>image/svg+xml</dc:format>
        <dc:type
           rdf:resource="http://purl.org/dc/dcmitype/StillImage" />
        <dc:title />
      </cc:Work>
    </rdf:RDF>
  </metadata>
  <defs
     id="defs22" />
  <sodipodi:namedview
     pagecolor="#ffffff"
     bordercolor="#666666"
     borderopacity="1"
     objecttolerance="10"
     gridtolerance="10"
     guidetolerance="10"
     inkscape:pageopacity="0"
     inkscape:pageshadow="2"
     inkscape:window-width="1600"
     inkscape:window-height="837"
     id="namedview20"
     showgrid="false"
     fit-margin-top="0"
     fit-margin-left="0"
     fit-margin-right="0"
     fit-margin-bottom="0"
     units="px"
     inkscape:zoom="1.0429825"
     inkscape:cx="41.051315"
     inkscape:cy="279.92927"
     inkscape:window-x="0"
     inkscape:window-y="30"
     inkscape:window-maximized="1"
     inkscape:current-layer="svg2" />
  <path
     d="M 200,89.1113 C 200,70.7855 185.14404,55.9296 166.81519,55.9296 l -10.18677,0 0,10.1867 c 0,18.1275 14.53552,32.8492 32.58667,33.1696 l 0,4.7577 C 183.30994,98.6389 175.44861,95.34 166.81519,95.34 l -10.18677,0 0,10.1867 c 0,18.1275 14.53552,32.8492 32.58362,33.1696 l 0,5.014 c -5.9021,-5.4046 -13.76343,-8.7036 -22.39685,-8.7036 l -10.18677,0 0,10.1898 c 0,18.1244 14.53552,32.8461 32.58362,33.1665 l 0,5.539 c -5.9021,-5.4047 -13.76343,-8.7036 -22.39685,-8.7036 l -10.18982,0 0,10.1867 c 0,18.1275 14.53552,32.8492 32.58667,33.1696 l 0,181.1554 C 192.78564,399.8993 196.38062,400 200,400 c 3.61938,0 7.21436,-0.101 10.78491,-0.29 l 0,-181.1554 c 18.05115,-0.32 32.58667,-15.0421 32.58667,-33.1696 l 0,-10.1867 -10.18982,0 c -8.63342,0 -16.49475,3.2989 -22.39685,8.7036 l 0,-5.539 c 18.0481,-0.32 32.58362,-15.0421 32.58362,-33.1695 l 0,-10.1868 -10.18677,0 c -8.63342,0 -16.49475,3.299 -22.39685,8.7036 l 0,-5.014 c 18.0481,-0.32 32.58362,-15.0421 32.58362,-33.1696 l 0,-10.1867 -10.18677,0 c -8.63342,0 -16.49475,3.2989 -22.3999,8.7036 l 0,-4.7608 c 18.05115,-0.32 32.58667,-15.0421 32.58667,-33.1665 l 0,-10.1898 -10.18677,0 C 214.85596,55.9296 200,70.7855 200,89.1113 Z m 0,0"
     id="path8"
     inkscape:connector-curvature="0"
     style="fill:#ffe358;fill-opacity:1" />
  <path
     d="m 199.68262,399.9969 c 0.1068,0 0.2106,0.003 0.3174,0.003 3.61938,0 7.21436,-0.101 10.78491,-0.29 l 0,-181.1554 c 18.05115,-0.32 32.58667,-15.0421 32.58667,-33.1696 l 0,-10.1867 -10.18982,0 c -8.63342,0 -16.49475,3.2989 -22.39685,8.7036 l 0,-5.539 c 18.0481,-0.32 32.58362,-15.0421 32.58362,-33.1695 l 0,-10.1868 -10.18677,0 c -8.63342,0 -16.49475,3.299 -22.39685,8.7036 l 0,-5.014 c 18.0481,-0.32 32.58362,-15.0421 32.58362,-33.1696 l 0,-10.1867 -10.18677,0 c -8.63342,0 -16.49475,3.2989 -22.3999,8.7036 l 0,-4.7608 c 18.05115,-0.32 32.58667,-15.0421 32.58667,-33.1665 l 0,-10.1898 -10.18677,0 c -18.32885,0 -33.18481,14.859 -33.18481,33.1848 z m 0,0"
     id="path10"
     inkscape:connector-curvature="0"
     style="fill:#ffa300" />
  <path
     d="m 343.76221,244.7296 -10.18677,0 c -8.63342,0 -16.4978,3.299 -22.3999,8.7036 l 0,-5.5389 c 18.05114,-0.32 32.58667,-15.0421 32.58667,-33.1665 l 0,-10.1898 -10.18982,0 c -8.63343,0 -16.49475,3.2989 -22.39685,8.7036 l 0,-5.0141 c 18.04809,-0.32 32.58362,-15.0421 32.58362,-33.1695 l 0,-10.1868 -10.18677,0 c -8.63343,0 -16.49475,3.299 -22.39685,8.7036 l 0,-4.7577 c 18.04809,-0.32 32.58362,-15.0451 32.58362,-33.1695 l 0,-10.1868 -10.18677,0 c -18.32581,0 -33.18482,14.856 -33.18482,33.1818 0,-18.3258 -14.85595,-33.1818 -33.18176,-33.1818 l -10.18982,0 0,10.1868 c 0,18.1244 14.53552,32.8491 32.58667,33.1695 l 0,4.7577 c -5.9021,-5.4046 -13.76648,-8.7036 -22.3999,-8.7036 l -10.18677,0 0,10.1868 c 0,18.1274 14.53552,32.8491 32.58667,33.1695 l 0,5.0141 c -5.90515,-5.4047 -13.76648,-8.7036 -22.3999,-8.7036 l -10.18677,0 0,10.1867 c 0,18.1275 14.53552,32.8492 32.58362,33.1696 l 0,5.5389 c -5.9021,-5.4046 -13.76343,-8.7036 -22.39685,-8.7036 l -10.18677,0 0,10.1868 c 0,18.1244 14.53552,32.8491 32.58362,33.1695 l 0,90.7532 c 7.46765,-3.7506 14.67285,-7.9498 21.56982,-12.5702 l 0,-78.183 c 18.05115,-0.32 32.58667,-15.0421 32.58667,-33.1695 l 0,-10.1868 z m 0,0"
     id="path12"
     inkscape:connector-curvature="0"
     style="fill:#ffe358;fill-opacity:1" />
  <path
     d="m 300.2594,373.0743 c 3.71704,-2.1545 7.35779,-4.422 10.91614,-6.8054 l 0,-78.183 c 18.05114,-0.32 32.58667,-15.0421 32.58667,-33.1695 l 0,-10.1868 -10.18982,0 c -8.63343,0 -16.49475,3.299 -22.39685,8.7036 l 0,-5.5389 c 18.04809,-0.32 32.58362,-15.0421 32.58362,-33.1696 l 0,-10.1867 -10.18677,0 c -8.63343,0 -16.49475,3.2989 -22.39685,8.7036 l 0,-5.0141 c 18.04809,-0.32 32.58362,-15.0421 32.58362,-33.1695 l 0,-10.1868 -10.18677,0 c -8.63343,0 -16.49475,3.299 -22.3999,8.7036 l 0,-4.7607 c 18.05114,-0.32 32.58667,-15.0421 32.58667,-33.1665 l 0,-10.1898 -10.18677,0 c -18.32886,0 -33.18482,14.859 -33.18482,33.1848 z m 0,0"
     id="path14"
     inkscape:connector-curvature="0"
     style="fill:#fdba12" />
  <path
     d="m 99.609375,158.6426 c 0,-18.3258 -14.855957,-33.1818 -33.184814,-33.1818 l -10.186768,0 0,10.1868 c 0,18.1274 14.535523,32.8491 32.58667,33.1695 l 0,4.7577 c -5.905151,-5.4046 -13.766479,-8.7036 -22.399902,-8.7036 l -10.186768,0 0,10.1868 c 0,18.1274 14.535523,32.8491 32.583618,33.1695 l 0,5.0141 c -5.902099,-5.4047 -13.763427,-8.7036 -22.39685,-8.7036 l -10.186768,0 0,10.1898 c 0,18.1244 14.535523,32.8461 32.583618,33.1665 l 0,5.5389 c -5.902099,-5.4046 -13.763427,-8.7036 -22.39685,-8.7036 l -10.18982,0 0,10.1868 c 0,18.1274 14.535523,32.8491 32.58667,33.1695 l 0,78.183 c 6.896973,4.6204 14.102169,8.8196 21.569829,12.5702 l 0,-90.7532 c 18.05114,-0.32 32.58667,-15.0421 32.58667,-33.1695 l 0,-10.1868 -10.18982,0 c -8.63343,0 -16.49475,3.299 -22.39685,8.7036 l 0,-5.5389 c 18.04809,-0.32 32.58361,-15.0421 32.58361,-33.1696 l 0,-10.1867 -10.18676,0 c -8.63343,0 -16.49475,3.2989 -22.39685,8.7036 l 0,-5.0141 c 18.04809,-0.32 32.58361,-15.0421 32.58361,-33.1695 l 0,-10.1868 -10.18676,0 c -8.63343,0 -16.49475,3.299 -22.39991,8.7036 l 0,-4.7607 c 18.05115,-0.32 32.58667,-15.0421 32.58667,-33.1665 l 0,-10.1898 -10.18676,0 c -18.32276,0.003 -33.178715,14.859 -33.178715,33.1848 z m 0,0"
     id="path16"
     inkscape:connector-curvature="0"
     style="fill:#ffe358;fill-opacity:1" />
  <path
     d="m 142.98096,135.6476 0,-10.1868 -10.18677,0 c -17.36755,0 -31.60706,13.3392 -33.053589,30.3314 l -0.13123,2.8504 0.13123,214.4317 c 3.488159,2.0234 7.037349,3.949 10.653689,5.7648 l 0,-90.7532 c 18.05114,-0.32 32.58667,-15.0421 32.58667,-33.1695 l 0,-10.1868 -10.18982,0 c -8.63343,0 -16.49475,3.299 -22.39685,8.7036 l 0,-5.5389 c 18.04809,-0.32 32.58362,-15.0421 32.58362,-33.1696 l 0,-10.1867 -10.18677,0 c -8.63343,0 -16.49475,3.2989 -22.39685,8.7036 l 0,-5.0141 c 18.04809,-0.32 32.58362,-15.0421 32.58362,-33.1695 l 0,-10.1868 -10.18677,0 c -8.63343,0 -16.49475,3.299 -22.3999,8.7036 l 0,-4.7607 c 18.05419,-0.317 32.58972,-15.0391 32.58972,-33.1665 z m 0,0"
     id="path18"
     inkscape:connector-curvature="0"
     style="fill:#ffe000" />
</svg>
